<svg width="272" height="98" viewBox="0 0 272 98" fill="none" xmlns="http://www.w3.org/2000/svg">
<path d="M140.661 97.2001H131.896C131.896 96.9653 131.191 72.9392 118.278 72.9392H25.5391C11.8434 72.9392 0.6521 61.8261 0.6521 48.0522V44.1392H9.41733V46.9566C9.41733 56.5044 17.1652 64.174 26.6347 64.174H118.2C127.2 64.174 132.835 69.8087 136.2 77.0087C139.565 69.887 145.2 64.174 154.2 64.174H245.765C255.313 64.174 262.983 56.4261 262.983 46.9566V43.3566H271.748V48.0522C271.748 61.7479 260.635 72.9392 246.861 72.9392H154.278C141.365 72.8609 140.661 96.9653 140.661 97.2001Z" fill="#000080"/>
<path d="M48.7826 39.2087C48.7826 42.5739 49.1739 43.8261 49.4869 45.2348H52.5391C53.3217 45.2348 53.5565 45.4696 53.5565 46.2522V50.9479C53.5565 51.7305 53.4 51.9652 52.5391 51.9652H43.5391C41.8174 51.9652 41.6608 50.1652 41.3478 48.9131C39.9391 50.3218 37.4347 53.2174 32.113 53.2174C25.5391 53.2174 21.313 48.9131 21.313 42.1826C21.313 30.0522 34.3826 30.0522 40.0174 30.0522V27.8609C40.0174 24.6522 39.4695 22.5392 34.9304 22.5392C30.9391 22.5392 26.9478 24.7305 26.0086 24.7305C25.6173 24.7305 25.3826 24.2609 25.3043 24.0261L23.8956 19.6435C23.8174 19.3305 23.6608 19.0957 23.6608 18.7826C23.6608 17.1391 30.7826 15.4174 36.2608 15.4174C45.2608 15.4174 48.6261 19.487 48.6261 27V39.2087H48.7826ZM40.1739 35.8435C38.3739 35.8435 30.0782 35.2957 30.0782 41.5565C30.0782 44.3739 32.113 46.4087 34.8521 46.4087C37.513 46.4087 39.3913 44.5305 40.2521 43.6696V35.8435H40.1739Z" fill="#000080"/>
<path d="M76.9564 50.8696C76.9564 51.6522 76.7999 51.887 75.939 51.887H57.6259C56.7651 51.887 56.6085 51.6522 56.6085 50.8696V46.1739C56.6085 45.3913 56.7651 45.1565 57.6259 45.1565H62.2433V23.0087H57.5477C56.6868 23.0087 56.5303 22.7739 56.5303 21.9913V17.2957C56.5303 16.513 56.6868 16.2783 57.5477 16.2783H70.3042C71.1651 16.2783 71.3216 16.513 71.3216 17.2957V45.0783H75.939C76.7999 45.0783 76.9564 45.313 76.9564 46.0957V50.8696ZM66.7042 11.8174C63.4172 11.8174 60.7564 9.15652 60.7564 5.86957C60.7564 2.58261 63.4172 0 66.7042 0C69.9129 0 72.5738 2.58261 72.5738 5.86957C72.652 9.15652 69.9911 11.8174 66.7042 11.8174Z" fill="#000080"/>
<path d="M116.478 50.8696C116.478 51.6522 116.322 51.887 115.461 51.887H105.835C104.27 51.887 104.583 51.4174 103.722 49.2261C102.391 50.3217 99.0261 53.1391 93.6261 53.1391C85.4087 53.1391 81.3391 46.5652 81.3391 35.6087C81.3391 22.0696 86.1913 15.2609 95.113 15.2609C99.3391 15.2609 101.139 16.5913 102.47 17.3739V7.12174H98.7913C97.9304 7.12174 97.7739 6.88695 97.7739 6.10434V1.40869C97.7739 0.626081 97.9304 0.391296 98.7913 0.391296H110.53C111.391 0.391296 111.548 0.626081 111.548 1.40869V39.1304C111.548 42.5739 111.861 43.8261 112.252 45.1565H115.383C116.243 45.1565 116.4 45.3913 116.4 46.1739V50.8696H116.478ZM102.47 23.8696C101.765 23.4783 100.356 22.4609 96.913 22.4609C91.513 22.4609 90.4174 26.4522 90.4174 34.4348C90.4174 42.5739 91.7478 46.0174 96.4434 46.0174C100.043 46.0174 101.452 44.4522 102.391 43.513V23.8696H102.47Z" fill="#000080"/>
<path d="M146.296 48.6C146.374 48.8348 146.53 48.9913 146.53 49.1479C146.53 49.9305 140.504 52.9044 135.183 52.9044C126.652 52.9044 121.722 46.2522 121.722 35.7653C121.722 23.7913 127.435 16.4348 136.278 16.4348C139.252 16.4348 143.948 17.7653 146.061 19.487C146.296 19.7218 146.296 19.9566 146.296 20.5826V26.7653C146.296 27.3131 146.061 27.6261 145.513 27.6261H142.461C141.991 27.6261 141.678 27.3913 141.678 26.7653V22.6174C140.426 21.8348 138.391 21.287 136.826 21.287C129.783 21.287 127.748 26.5305 127.748 34.7479C127.748 41.2435 129 48.2087 135.965 48.2087C140.661 48.2087 144.339 45.2348 144.809 45.2348C145.043 45.2348 145.122 45.4696 145.278 45.7044L146.296 48.6Z" fill="#000080"/>
<path d="M166.409 52.9044C156.704 52.9044 152.556 45.0783 152.556 34.8261C152.556 24.887 156.704 16.4348 167.113 16.4348C176.974 16.4348 181.122 24.3392 181.122 34.4348C181.122 44.5305 176.896 52.9044 166.409 52.9044ZM175.252 34.3566C175.252 27.3131 173.296 20.8957 166.878 20.8957C160.382 20.8957 158.504 27.0783 158.504 34.2C158.504 42.4174 160.382 48.5218 166.956 48.5218C173.296 48.4435 175.252 42.6522 175.252 34.3566Z" fill="#000080"/>
<path d="M220.409 51.0261C220.409 51.5739 220.096 51.887 219.548 51.887H213.052C211.252 51.887 210.939 49.6174 210.548 48.6783C208.513 50.4 205.148 52.9043 199.67 52.9043C191.844 52.9043 188.478 44.2957 188.478 35.3739C188.478 25.0435 192 16.4348 200.452 16.4348C203.817 16.4348 206.713 16.9043 209.53 18.8609V4.85218H204.991C204.443 4.85218 204.13 4.53913 204.13 3.9913V1.25217C204.13 0.704345 204.443 0.391296 204.991 0.391296H214.148C214.696 0.391296 215.009 0.704345 215.009 1.25217V42.887C215.009 45.5478 215.165 45.8609 215.478 47.4261H219.548C220.096 47.4261 220.409 47.7391 220.409 48.287V51.0261ZM209.53 23.6348C207.026 21.7565 204.287 21.287 201.078 21.287C195.052 21.287 194.348 28.3304 194.348 35.2957C194.348 41.3217 194.974 48.1304 200.687 48.1304C204.443 48.1304 207.496 45.8609 209.609 43.9043V23.6348H209.53Z" fill="#000080"/>
<path d="M250.07 48.6C250.148 48.8348 250.304 48.9913 250.304 49.1479C250.304 49.9305 244.278 52.9044 238.957 52.9044C229.409 52.8261 223.774 45.5479 223.774 34.6696C223.774 24.1044 229.096 16.4348 238.017 16.4348C249.991 16.4348 251.087 28.0957 251.087 34.2C251.087 35.2174 251.087 35.7653 250.304 35.7653H229.722C229.722 40.1479 231.443 48.0522 239.661 48.0522C244.357 48.0522 248.035 45.0783 248.504 45.0783C248.739 45.0783 248.817 45.3131 248.974 45.5479L250.07 48.6ZM245.139 31.3826C245.139 27.6261 243.887 20.8957 237.704 20.8957C231.13 20.8957 229.643 27.7826 229.643 31.3826H245.139Z" fill="#000080"/>
</svg>
