<svg width="660" height="237" viewBox="0 0 660 237" fill="none" xmlns="http://www.w3.org/2000/svg">
<path d="M340.444 236.351H319.13C319.13 235.78 317.418 177.358 286.019 177.358H60.5149C27.2127 177.358 0 150.336 0 116.843V107.328H21.3134V114.179C21.3134 137.395 40.153 156.045 63.1791 156.045H285.828C307.713 156.045 321.414 169.746 329.597 187.254C337.78 169.936 351.481 156.045 373.365 156.045H596.015C619.231 156.045 637.88 137.205 637.88 114.179V105.425H659.194V116.843C659.194 150.145 632.171 177.358 598.679 177.358H373.556C342.157 177.168 340.444 235.78 340.444 236.351Z" fill="#000080"/>
<path d="M117.033 95.3395C117.033 103.522 117.985 106.567 118.746 109.992H126.168C128.071 109.992 128.641 110.563 128.641 112.466V123.884C128.641 125.787 128.261 126.358 126.168 126.358H104.283C100.097 126.358 99.7161 121.981 98.9549 118.937C95.5296 122.362 89.44 129.403 76.4997 129.403C60.5147 129.403 50.2385 118.937 50.2385 102.571C50.2385 73.0746 82.0184 73.0746 95.7199 73.0746V67.7463C95.7199 59.944 94.3878 54.806 83.3505 54.806C73.6453 54.806 63.94 60.1343 61.6564 60.1343C60.7049 60.1343 60.1341 58.9925 59.9438 58.4217L56.5184 47.7649C56.3281 47.0037 55.9475 46.4328 55.9475 45.6716C55.9475 41.6754 73.2646 37.4888 86.5855 37.4888C108.47 37.4888 116.653 47.3843 116.653 65.653V95.3395H117.033ZM96.1004 87.1567C91.7236 87.1567 71.552 85.8246 71.552 101.048C71.552 107.899 76.4997 112.847 83.1602 112.847C89.6303 112.847 94.1975 108.28 96.2908 106.187V87.1567H96.1004Z" fill="#000080"/>
<path d="M185.541 123.694C185.541 125.597 185.16 126.168 183.067 126.168H138.537C136.444 126.168 136.063 125.597 136.063 123.694V112.276C136.063 110.373 136.444 109.802 138.537 109.802H149.765V55.9477H138.347C136.253 55.9477 135.873 55.3768 135.873 53.4739V42.056C135.873 40.153 136.253 39.5821 138.347 39.5821H169.365C171.459 39.5821 171.839 40.153 171.839 42.056V109.612H183.067C185.16 109.612 185.541 110.183 185.541 112.086V123.694ZM160.612 28.7351C152.619 28.7351 146.149 22.2649 146.149 14.2724C146.149 6.27985 152.619 0 160.612 0C168.414 0 174.884 6.27985 174.884 14.2724C175.074 22.2649 168.604 28.7351 160.612 28.7351Z" fill="#000080"/>
<path d="M281.642 123.694C281.642 125.597 281.261 126.168 279.168 126.168H255.761C251.955 126.168 252.717 125.026 250.623 119.698C247.388 122.362 239.205 129.213 226.075 129.213C206.093 129.213 196.198 113.228 196.198 86.5858C196.198 53.6641 207.996 37.1082 229.69 37.1082C239.967 37.1082 244.343 40.3433 247.578 42.2463V17.3172H238.634C236.541 17.3172 236.161 16.7463 236.161 14.8433V3.42536C236.161 1.52238 236.541 0.951477 238.634 0.951477H267.179C269.272 0.951477 269.653 1.52238 269.653 3.42536V95.1492C269.653 103.522 270.414 106.567 271.366 109.802H278.978C281.071 109.802 281.452 110.373 281.452 112.276V123.694H281.642ZM247.578 58.041C245.866 57.0895 242.44 54.6156 234.067 54.6156C220.937 54.6156 218.273 64.3208 218.273 83.7313C218.273 103.522 221.508 111.895 232.925 111.895C241.679 111.895 245.105 108.089 247.388 105.806V58.041H247.578Z" fill="#000080"/>
<path d="M354.145 118.175C354.336 118.746 354.716 119.127 354.716 119.507C354.716 121.41 340.063 128.642 327.123 128.642C306.38 128.642 294.392 112.466 294.392 86.9664C294.392 57.8507 308.283 39.9626 329.787 39.9626C337.018 39.9626 348.436 43.1977 353.574 47.3843C354.145 47.9552 354.145 48.5261 354.145 50.0485V65.0821C354.145 66.4141 353.574 67.1753 352.242 67.1753H344.821C343.679 67.1753 342.918 66.6044 342.918 65.0821V54.9962C339.873 53.0933 334.925 51.7612 331.119 51.7612C313.992 51.7612 309.045 64.5112 309.045 84.4925C309.045 100.287 312.089 117.224 329.026 117.224C340.444 117.224 349.388 109.992 350.53 109.992C351.101 109.992 351.291 110.563 351.671 111.134L354.145 118.175Z" fill="#FCB527"/>
<path d="M403.052 128.642C379.455 128.642 369.369 109.612 369.369 84.6828C369.369 60.5149 379.455 39.9626 404.765 39.9626C428.742 39.9626 438.828 59.1828 438.828 83.7313C438.828 108.28 428.552 128.642 403.052 128.642ZM424.556 83.541C424.556 66.4141 419.798 50.8097 404.194 50.8097C388.399 50.8097 383.832 65.8433 383.832 83.1604C383.832 103.142 388.399 117.985 404.384 117.985C419.798 117.795 424.556 103.713 424.556 83.541Z" fill="#FCB527"/>
<path d="M534.358 124.075C534.358 125.407 533.597 126.168 532.265 126.168H516.47C512.093 126.168 511.332 120.649 510.38 118.366C505.433 122.552 497.25 128.642 483.929 128.642C464.899 128.642 456.716 107.709 456.716 86.0149C456.716 60.8955 465.28 39.9626 485.832 39.9626C494.015 39.9626 501.056 41.1045 507.906 45.8619V11.7985H496.869C495.537 11.7985 494.776 11.0373 494.776 9.70522V3.04477C494.776 1.71268 495.537 0.951477 496.869 0.951477H519.134C520.466 0.951477 521.227 1.71268 521.227 3.04477V104.284C521.227 110.754 521.608 111.515 522.369 115.321H532.265C533.597 115.321 534.358 116.082 534.358 117.414V124.075ZM507.906 57.4701C501.817 52.903 495.156 51.7612 487.354 51.7612C472.701 51.7612 470.989 68.888 470.989 85.8246C470.989 100.478 472.511 117.034 486.403 117.034C495.537 117.034 502.959 111.515 508.097 106.757V57.4701H507.906Z" fill="#FCB527"/>
<path d="M606.481 118.175C606.672 118.746 607.052 119.127 607.052 119.507C607.052 121.41 592.399 128.642 579.459 128.642C556.243 128.451 542.541 110.754 542.541 84.3022C542.541 58.6119 555.481 39.9626 577.175 39.9626C606.291 39.9626 608.955 68.3171 608.955 83.1604C608.955 85.6343 608.955 86.9664 607.052 86.9664H557.004C557.004 97.6231 561.19 116.843 581.172 116.843C592.589 116.843 601.533 109.612 602.675 109.612C603.246 109.612 603.437 110.183 603.817 110.754L606.481 118.175ZM594.492 76.3097C594.492 67.1753 591.448 50.8097 576.414 50.8097C560.429 50.8097 556.813 67.5559 556.813 76.3097H594.492Z" fill="#FCB527"/>
</svg>
