<svg width="393" height="852" viewBox="0 0 393 852" fill="none" xmlns="http://www.w3.org/2000/svg">
<rect width="393" height="852" rx="30" fill="#FCB527"/>
<path d="M200.661 441.2H191.896C191.896 440.965 191.191 416.939 178.278 416.939H85.5391C71.8434 416.939 60.6521 405.826 60.6521 392.052V388.139H69.4173V390.957C69.4173 400.504 77.1652 408.174 86.6347 408.174H178.2C187.2 408.174 192.835 413.809 196.2 421.009C199.565 413.887 205.2 408.174 214.2 408.174H305.765C315.313 408.174 322.983 400.426 322.983 390.957V387.357H331.748V392.052C331.748 405.748 320.635 416.939 306.861 416.939H214.278C201.365 416.861 200.661 440.965 200.661 441.2Z" fill="#000080"/>
<path d="M108.783 383.209C108.783 386.574 109.174 387.826 109.487 389.235H112.539C113.322 389.235 113.556 389.47 113.556 390.252V394.948C113.556 395.73 113.4 395.965 112.539 395.965H103.539C101.817 395.965 101.661 394.165 101.348 392.913C99.9391 394.322 97.4347 397.217 92.113 397.217C85.5391 397.217 81.313 392.913 81.313 386.183C81.313 374.052 94.3826 374.052 100.017 374.052V371.861C100.017 368.652 99.4695 366.539 94.9304 366.539C90.9391 366.539 86.9478 368.73 86.0086 368.73C85.6173 368.73 85.3826 368.261 85.3043 368.026L83.8956 363.644C83.8174 363.33 83.6608 363.096 83.6608 362.783C83.6608 361.139 90.7826 359.417 96.2608 359.417C105.261 359.417 108.626 363.487 108.626 371V383.209H108.783ZM100.174 379.844C98.3739 379.844 90.0782 379.296 90.0782 385.557C90.0782 388.374 92.113 390.409 94.8521 390.409C97.513 390.409 99.3913 388.53 100.252 387.67V379.844H100.174Z" fill="#000080"/>
<path d="M136.956 394.87C136.956 395.652 136.8 395.887 135.939 395.887H117.626C116.765 395.887 116.609 395.652 116.609 394.87V390.174C116.609 389.391 116.765 389.157 117.626 389.157H122.243V367.009H117.548C116.687 367.009 116.53 366.774 116.53 365.991V361.296C116.53 360.513 116.687 360.278 117.548 360.278H130.304C131.165 360.278 131.322 360.513 131.322 361.296V389.078H135.939C136.8 389.078 136.956 389.313 136.956 390.096V394.87ZM126.704 355.817C123.417 355.817 120.756 353.157 120.756 349.87C120.756 346.583 123.417 344 126.704 344C129.913 344 132.574 346.583 132.574 349.87C132.652 353.157 129.991 355.817 126.704 355.817Z" fill="#000080"/>
<path d="M176.478 394.87C176.478 395.652 176.322 395.887 175.461 395.887H165.835C164.27 395.887 164.583 395.417 163.722 393.226C162.391 394.322 159.026 397.139 153.626 397.139C145.409 397.139 141.339 390.565 141.339 379.609C141.339 366.07 146.191 359.261 155.113 359.261C159.339 359.261 161.139 360.591 162.47 361.374V351.122H158.791C157.93 351.122 157.774 350.887 157.774 350.104V345.409C157.774 344.626 157.93 344.391 158.791 344.391H170.53C171.391 344.391 171.548 344.626 171.548 345.409V383.13C171.548 386.574 171.861 387.826 172.252 389.157H175.383C176.243 389.157 176.4 389.391 176.4 390.174V394.87H176.478ZM162.47 367.87C161.765 367.478 160.356 366.461 156.913 366.461C151.513 366.461 150.417 370.452 150.417 378.435C150.417 386.574 151.748 390.017 156.443 390.017C160.043 390.017 161.452 388.452 162.391 387.513V367.87H162.47Z" fill="#000080"/>
<path d="M206.296 392.6C206.374 392.835 206.53 392.991 206.53 393.148C206.53 393.93 200.504 396.904 195.183 396.904C186.652 396.904 181.722 390.252 181.722 379.765C181.722 367.791 187.435 360.435 196.278 360.435C199.252 360.435 203.948 361.765 206.061 363.487C206.296 363.722 206.296 363.957 206.296 364.583V370.765C206.296 371.313 206.061 371.626 205.513 371.626H202.461C201.991 371.626 201.678 371.391 201.678 370.765V366.617C200.426 365.835 198.391 365.287 196.826 365.287C189.783 365.287 187.748 370.53 187.748 378.748C187.748 385.244 189 392.209 195.965 392.209C200.661 392.209 204.339 389.235 204.809 389.235C205.043 389.235 205.122 389.47 205.278 389.704L206.296 392.6Z" fill="#000080"/>
<path d="M226.409 396.904C216.704 396.904 212.556 389.078 212.556 378.826C212.556 368.887 216.704 360.435 227.113 360.435C236.974 360.435 241.122 368.339 241.122 378.435C241.122 388.53 236.896 396.904 226.409 396.904ZM235.252 378.357C235.252 371.313 233.296 364.896 226.878 364.896C220.382 364.896 218.504 371.078 218.504 378.2C218.504 386.417 220.382 392.522 226.956 392.522C233.296 392.444 235.252 386.652 235.252 378.357Z" fill="#000080"/>
<path d="M280.409 395.026C280.409 395.574 280.096 395.887 279.548 395.887H273.052C271.252 395.887 270.939 393.617 270.548 392.678C268.513 394.4 265.148 396.904 259.67 396.904C251.844 396.904 248.478 388.296 248.478 379.374C248.478 369.043 252 360.435 260.452 360.435C263.817 360.435 266.713 360.904 269.53 362.861V348.852H264.991C264.443 348.852 264.13 348.539 264.13 347.991V345.252C264.13 344.704 264.443 344.391 264.991 344.391H274.148C274.696 344.391 275.009 344.704 275.009 345.252V386.887C275.009 389.548 275.165 389.861 275.478 391.426H279.548C280.096 391.426 280.409 391.739 280.409 392.287V395.026ZM269.53 367.635C267.026 365.757 264.287 365.287 261.078 365.287C255.052 365.287 254.348 372.33 254.348 379.296C254.348 385.322 254.974 392.13 260.687 392.13C264.443 392.13 267.496 389.861 269.609 387.904V367.635H269.53Z" fill="#000080"/>
<path d="M310.07 392.6C310.148 392.835 310.304 392.991 310.304 393.148C310.304 393.93 304.278 396.904 298.957 396.904C289.409 396.826 283.774 389.548 283.774 378.67C283.774 368.104 289.096 360.435 298.017 360.435C309.991 360.435 311.087 372.096 311.087 378.2C311.087 379.217 311.087 379.765 310.304 379.765H289.722C289.722 384.148 291.443 392.052 299.661 392.052C304.357 392.052 308.035 389.078 308.504 389.078C308.739 389.078 308.817 389.313 308.974 389.548L310.07 392.6ZM305.139 375.383C305.139 371.626 303.887 364.896 297.704 364.896C291.13 364.896 289.643 371.783 289.643 375.383H305.139Z" fill="#000080"/>
</svg>
